<?xml version="1.0" standalone="no"?>
<!DOCTYPE svg PUBLIC "-//W3C//DTD SVG 20010904//EN"
 "http://www.w3.org/TR/2001/REC-SVG-20010904/DTD/svg10.dtd">
<svg version="1.0" xmlns="http://www.w3.org/2000/svg"
 width="500.000000pt" height="500.000000pt" viewBox="0 0 500.000000 500.000000"
 preserveAspectRatio="xMidYMid meet">

<g transform="translate(0.000000,500.000000) scale(0.100000,-0.100000)"
fill="#000000" stroke="none">
<path d="M2861 3784 c-85 -71 -38 -214 69 -214 53 0 87 17 111 57 69 112 -80
242 -180 157z"/>
<path d="M3344 3641 c-121 -30 -185 -162 -135 -276 28 -63 46 -83 96 -106 108
-50 239 6 275 117 17 49 7 136 -20 179 -40 64 -141 104 -216 86z"/>
<path d="M2320 3496 c-74 -16 -219 -65 -271 -91 -128 -66 -265 -183 -352 -300
-69 -93 -106 -162 -140 -265 -42 -126 -51 -188 -50 -330 1 -111 5 -152 27
-234 33 -127 86 -241 157 -336 74 -99 122 -148 220 -220 176 -130 359 -190
584 -190 232 0 411 61 607 208 168 125 297 321 354 537 36 136 38 336 6 468
-89 362 -343 624 -707 732 -111 33 -328 43 -435 21z"/>
<path d="M1806 1560 c-77 -23 -128 -119 -106 -200 39 -146 240 -170 304 -36
65 137 -54 279 -198 236z"/>
</g>
</svg>
